<mxfile host="app.diagrams.net" modified="2022-03-12T17:20:37.500Z" agent="5.0 (Windows NT 10.0; Win64; x64) AppleWebKit/537.36 (KHTML, like Gecko) Chrome/99.0.4844.51 Safari/537.36" etag="eiDfE2_btb3mjN0DLfvC" version="17.1.2" type="github">
  <diagram id="J-oDhAV4C-Gi31jvmLeF" name="Page-1">
    <mxGraphModel dx="2272" dy="802" grid="1" gridSize="10" guides="1" tooltips="1" connect="1" arrows="1" fold="1" page="1" pageScale="1" pageWidth="850" pageHeight="1100" math="0" shadow="0">
      <root>
        <mxCell id="0" />
        <mxCell id="1" parent="0" />
        <mxCell id="PvbY62O2NmOLSWFA-3aL-2" value="Notification&lt;br&gt;Sender&lt;br&gt;Service" style="rounded=0;whiteSpace=wrap;html=1;" parent="1" vertex="1">
          <mxGeometry x="130" y="320" width="160" height="60" as="geometry" />
        </mxCell>
        <mxCell id="PvbY62O2NmOLSWFA-3aL-4" value="iPhone" style="rounded=0;whiteSpace=wrap;html=1;" parent="1" vertex="1">
          <mxGeometry x="960" y="200" width="120" height="50" as="geometry" />
        </mxCell>
        <mxCell id="PvbY62O2NmOLSWFA-3aL-5" value="Android" style="rounded=0;whiteSpace=wrap;html=1;" parent="1" vertex="1">
          <mxGeometry x="960" y="280" width="120" height="50" as="geometry" />
        </mxCell>
        <mxCell id="PvbY62O2NmOLSWFA-3aL-6" value="SMS Devide" style="rounded=0;whiteSpace=wrap;html=1;" parent="1" vertex="1">
          <mxGeometry x="960" y="360" width="120" height="50" as="geometry" />
        </mxCell>
        <mxCell id="PvbY62O2NmOLSWFA-3aL-7" value="Email Device" style="rounded=0;whiteSpace=wrap;html=1;" parent="1" vertex="1">
          <mxGeometry x="960" y="440" width="120" height="50" as="geometry" />
        </mxCell>
        <mxCell id="PvbY62O2NmOLSWFA-3aL-8" value="APNS" style="rounded=0;whiteSpace=wrap;html=1;" parent="1" vertex="1">
          <mxGeometry x="760" y="200" width="120" height="50" as="geometry" />
        </mxCell>
        <mxCell id="PvbY62O2NmOLSWFA-3aL-9" value="FMS" style="rounded=0;whiteSpace=wrap;html=1;" parent="1" vertex="1">
          <mxGeometry x="760" y="280" width="120" height="50" as="geometry" />
        </mxCell>
        <mxCell id="PvbY62O2NmOLSWFA-3aL-10" value="Email Service" style="rounded=0;whiteSpace=wrap;html=1;" parent="1" vertex="1">
          <mxGeometry x="760" y="440" width="120" height="50" as="geometry" />
        </mxCell>
        <mxCell id="PvbY62O2NmOLSWFA-3aL-11" value="SMS Service" style="rounded=0;whiteSpace=wrap;html=1;" parent="1" vertex="1">
          <mxGeometry x="760" y="360" width="120" height="50" as="geometry" />
        </mxCell>
        <mxCell id="PvbY62O2NmOLSWFA-3aL-12" value="" style="endArrow=classic;html=1;rounded=0;" parent="1" source="PvbY62O2NmOLSWFA-3aL-8" target="PvbY62O2NmOLSWFA-3aL-4" edge="1">
          <mxGeometry width="50" height="50" relative="1" as="geometry">
            <mxPoint x="490" y="410" as="sourcePoint" />
            <mxPoint x="540" y="360" as="targetPoint" />
          </mxGeometry>
        </mxCell>
        <mxCell id="PvbY62O2NmOLSWFA-3aL-13" value="" style="endArrow=classic;html=1;rounded=0;" parent="1" source="PvbY62O2NmOLSWFA-3aL-9" target="PvbY62O2NmOLSWFA-3aL-5" edge="1">
          <mxGeometry width="50" height="50" relative="1" as="geometry">
            <mxPoint x="890" y="235" as="sourcePoint" />
            <mxPoint x="970" y="235" as="targetPoint" />
          </mxGeometry>
        </mxCell>
        <mxCell id="PvbY62O2NmOLSWFA-3aL-14" value="" style="endArrow=classic;html=1;rounded=0;" parent="1" source="PvbY62O2NmOLSWFA-3aL-11" target="PvbY62O2NmOLSWFA-3aL-6" edge="1">
          <mxGeometry width="50" height="50" relative="1" as="geometry">
            <mxPoint x="890" y="315" as="sourcePoint" />
            <mxPoint x="970" y="315" as="targetPoint" />
          </mxGeometry>
        </mxCell>
        <mxCell id="PvbY62O2NmOLSWFA-3aL-15" value="" style="endArrow=classic;html=1;rounded=0;" parent="1" source="PvbY62O2NmOLSWFA-3aL-10" target="PvbY62O2NmOLSWFA-3aL-7" edge="1">
          <mxGeometry width="50" height="50" relative="1" as="geometry">
            <mxPoint x="890" y="395" as="sourcePoint" />
            <mxPoint x="970" y="395" as="targetPoint" />
          </mxGeometry>
        </mxCell>
        <mxCell id="PvbY62O2NmOLSWFA-3aL-41" value="" style="edgeStyle=orthogonalEdgeStyle;rounded=0;orthogonalLoop=1;jettySize=auto;html=1;" parent="1" source="PvbY62O2NmOLSWFA-3aL-17" target="PvbY62O2NmOLSWFA-3aL-37" edge="1">
          <mxGeometry relative="1" as="geometry" />
        </mxCell>
        <mxCell id="PvbY62O2NmOLSWFA-3aL-17" value="Queue" style="rounded=0;whiteSpace=wrap;html=1;" parent="1" vertex="1">
          <mxGeometry x="440" y="200" width="120" height="50" as="geometry" />
        </mxCell>
        <mxCell id="PvbY62O2NmOLSWFA-3aL-18" value="Queue" style="rounded=0;whiteSpace=wrap;html=1;" parent="1" vertex="1">
          <mxGeometry x="440" y="280" width="120" height="50" as="geometry" />
        </mxCell>
        <mxCell id="PvbY62O2NmOLSWFA-3aL-19" value="Queue" style="rounded=0;whiteSpace=wrap;html=1;" parent="1" vertex="1">
          <mxGeometry x="440" y="360" width="120" height="50" as="geometry" />
        </mxCell>
        <mxCell id="PvbY62O2NmOLSWFA-3aL-20" value="Queue" style="rounded=0;whiteSpace=wrap;html=1;" parent="1" vertex="1">
          <mxGeometry x="440" y="440" width="120" height="50" as="geometry" />
        </mxCell>
        <mxCell id="PvbY62O2NmOLSWFA-3aL-21" value="" style="endArrow=classic;html=1;rounded=0;" parent="1" source="PvbY62O2NmOLSWFA-3aL-2" target="PvbY62O2NmOLSWFA-3aL-17" edge="1">
          <mxGeometry width="50" height="50" relative="1" as="geometry">
            <mxPoint x="400" y="410" as="sourcePoint" />
            <mxPoint x="450" y="360" as="targetPoint" />
          </mxGeometry>
        </mxCell>
        <mxCell id="PvbY62O2NmOLSWFA-3aL-22" value="" style="endArrow=classic;html=1;rounded=0;" parent="1" source="PvbY62O2NmOLSWFA-3aL-2" target="PvbY62O2NmOLSWFA-3aL-18" edge="1">
          <mxGeometry width="50" height="50" relative="1" as="geometry">
            <mxPoint x="330" y="306.25" as="sourcePoint" />
            <mxPoint x="450" y="258.75" as="targetPoint" />
          </mxGeometry>
        </mxCell>
        <mxCell id="PvbY62O2NmOLSWFA-3aL-23" value="" style="endArrow=classic;html=1;rounded=0;" parent="1" source="PvbY62O2NmOLSWFA-3aL-2" target="PvbY62O2NmOLSWFA-3aL-19" edge="1">
          <mxGeometry width="50" height="50" relative="1" as="geometry">
            <mxPoint x="330" y="326.25" as="sourcePoint" />
            <mxPoint x="450" y="318.75" as="targetPoint" />
          </mxGeometry>
        </mxCell>
        <mxCell id="PvbY62O2NmOLSWFA-3aL-24" value="" style="endArrow=classic;html=1;rounded=0;" parent="1" source="PvbY62O2NmOLSWFA-3aL-2" target="PvbY62O2NmOLSWFA-3aL-20" edge="1">
          <mxGeometry width="50" height="50" relative="1" as="geometry">
            <mxPoint x="330" y="346.25" as="sourcePoint" />
            <mxPoint x="450" y="378.75" as="targetPoint" />
          </mxGeometry>
        </mxCell>
        <mxCell id="PvbY62O2NmOLSWFA-3aL-25" value="" style="endArrow=classic;html=1;rounded=0;" parent="1" source="PvbY62O2NmOLSWFA-3aL-20" target="PvbY62O2NmOLSWFA-3aL-40" edge="1">
          <mxGeometry width="50" height="50" relative="1" as="geometry">
            <mxPoint x="319.655172413793" y="360" as="sourcePoint" />
            <mxPoint x="468.62068965517255" y="450" as="targetPoint" />
          </mxGeometry>
        </mxCell>
        <mxCell id="PvbY62O2NmOLSWFA-3aL-26" value="" style="endArrow=classic;html=1;rounded=0;" parent="1" source="PvbY62O2NmOLSWFA-3aL-19" target="PvbY62O2NmOLSWFA-3aL-39" edge="1">
          <mxGeometry width="50" height="50" relative="1" as="geometry">
            <mxPoint x="570" y="475" as="sourcePoint" />
            <mxPoint x="680" y="475" as="targetPoint" />
          </mxGeometry>
        </mxCell>
        <mxCell id="PvbY62O2NmOLSWFA-3aL-27" value="" style="endArrow=classic;html=1;rounded=0;" parent="1" source="PvbY62O2NmOLSWFA-3aL-18" target="PvbY62O2NmOLSWFA-3aL-38" edge="1">
          <mxGeometry width="50" height="50" relative="1" as="geometry">
            <mxPoint x="570" y="395" as="sourcePoint" />
            <mxPoint x="680" y="395" as="targetPoint" />
          </mxGeometry>
        </mxCell>
        <mxCell id="PvbY62O2NmOLSWFA-3aL-28" value="" style="endArrow=classic;html=1;rounded=0;" parent="1" source="PvbY62O2NmOLSWFA-3aL-17" target="PvbY62O2NmOLSWFA-3aL-8" edge="1">
          <mxGeometry width="50" height="50" relative="1" as="geometry">
            <mxPoint x="570" y="315" as="sourcePoint" />
            <mxPoint x="680" y="315" as="targetPoint" />
          </mxGeometry>
        </mxCell>
        <mxCell id="PvbY62O2NmOLSWFA-3aL-29" value="Message Template Storage" style="rounded=0;whiteSpace=wrap;html=1;" parent="1" vertex="1">
          <mxGeometry x="130" y="500" width="160" height="60" as="geometry" />
        </mxCell>
        <mxCell id="PvbY62O2NmOLSWFA-3aL-30" value="Receiver Storage&lt;br&gt;(Phone Number, Email, Device Token, User Name)" style="rounded=0;whiteSpace=wrap;html=1;" parent="1" vertex="1">
          <mxGeometry x="130" y="440" width="160" height="60" as="geometry" />
        </mxCell>
        <mxCell id="PvbY62O2NmOLSWFA-3aL-31" value="Server Scheduler&lt;br&gt;Client Program" style="whiteSpace=wrap;html=1;" parent="1" vertex="1">
          <mxGeometry x="-110" y="320" width="140" height="60" as="geometry" />
        </mxCell>
        <mxCell id="PvbY62O2NmOLSWFA-3aL-33" value="" style="endArrow=classic;html=1;rounded=0;" parent="1" source="PvbY62O2NmOLSWFA-3aL-2" target="PvbY62O2NmOLSWFA-3aL-30" edge="1">
          <mxGeometry width="50" height="50" relative="1" as="geometry">
            <mxPoint x="-120" y="390" as="sourcePoint" />
            <mxPoint x="-20" y="360" as="targetPoint" />
          </mxGeometry>
        </mxCell>
        <mxCell id="PvbY62O2NmOLSWFA-3aL-34" value="" style="endArrow=classic;html=1;rounded=0;" parent="1" source="PvbY62O2NmOLSWFA-3aL-30" target="PvbY62O2NmOLSWFA-3aL-2" edge="1">
          <mxGeometry width="50" height="50" relative="1" as="geometry">
            <mxPoint x="-110" y="400" as="sourcePoint" />
            <mxPoint x="-120" y="390" as="targetPoint" />
          </mxGeometry>
        </mxCell>
        <mxCell id="PvbY62O2NmOLSWFA-3aL-36" value="" style="endArrow=classic;html=1;rounded=0;" parent="1" source="PvbY62O2NmOLSWFA-3aL-31" target="PvbY62O2NmOLSWFA-3aL-2" edge="1">
          <mxGeometry width="50" height="50" relative="1" as="geometry">
            <mxPoint x="90" y="350" as="sourcePoint" />
            <mxPoint x="-20" y="360" as="targetPoint" />
          </mxGeometry>
        </mxCell>
        <mxCell id="PvbY62O2NmOLSWFA-3aL-37" value="Sender Service" style="rounded=0;whiteSpace=wrap;html=1;" parent="1" vertex="1">
          <mxGeometry x="590" y="200" width="120" height="50" as="geometry" />
        </mxCell>
        <mxCell id="PvbY62O2NmOLSWFA-3aL-42" value="" style="edgeStyle=orthogonalEdgeStyle;rounded=0;orthogonalLoop=1;jettySize=auto;html=1;" parent="1" source="PvbY62O2NmOLSWFA-3aL-38" target="PvbY62O2NmOLSWFA-3aL-9" edge="1">
          <mxGeometry relative="1" as="geometry" />
        </mxCell>
        <mxCell id="PvbY62O2NmOLSWFA-3aL-38" value="Sender Service" style="rounded=0;whiteSpace=wrap;html=1;" parent="1" vertex="1">
          <mxGeometry x="590" y="280" width="120" height="50" as="geometry" />
        </mxCell>
        <mxCell id="PvbY62O2NmOLSWFA-3aL-43" value="" style="edgeStyle=orthogonalEdgeStyle;rounded=0;orthogonalLoop=1;jettySize=auto;html=1;" parent="1" source="PvbY62O2NmOLSWFA-3aL-39" target="PvbY62O2NmOLSWFA-3aL-11" edge="1">
          <mxGeometry relative="1" as="geometry" />
        </mxCell>
        <mxCell id="PvbY62O2NmOLSWFA-3aL-39" value="Sender Service" style="rounded=0;whiteSpace=wrap;html=1;" parent="1" vertex="1">
          <mxGeometry x="590" y="360" width="120" height="50" as="geometry" />
        </mxCell>
        <mxCell id="PvbY62O2NmOLSWFA-3aL-44" value="" style="edgeStyle=orthogonalEdgeStyle;rounded=0;orthogonalLoop=1;jettySize=auto;html=1;" parent="1" source="PvbY62O2NmOLSWFA-3aL-40" target="PvbY62O2NmOLSWFA-3aL-10" edge="1">
          <mxGeometry relative="1" as="geometry" />
        </mxCell>
        <mxCell id="PvbY62O2NmOLSWFA-3aL-40" value="Sender Service" style="rounded=0;whiteSpace=wrap;html=1;" parent="1" vertex="1">
          <mxGeometry x="590" y="440" width="120" height="50" as="geometry" />
        </mxCell>
        <mxCell id="PvbY62O2NmOLSWFA-3aL-45" value="" style="endArrow=classic;html=1;rounded=0;entryX=0.567;entryY=1.04;entryDx=0;entryDy=0;entryPerimeter=0;" parent="1" source="PvbY62O2NmOLSWFA-3aL-40" target="PvbY62O2NmOLSWFA-3aL-20" edge="1">
          <mxGeometry width="50" height="50" relative="1" as="geometry">
            <mxPoint x="570" y="475" as="sourcePoint" />
            <mxPoint x="600" y="475" as="targetPoint" />
            <Array as="points">
              <mxPoint x="650" y="540" />
              <mxPoint x="508" y="540" />
            </Array>
          </mxGeometry>
        </mxCell>
        <mxCell id="PvbY62O2NmOLSWFA-3aL-46" value="Permenent Fail List" style="rounded=0;whiteSpace=wrap;html=1;" parent="1" vertex="1">
          <mxGeometry x="760" y="570" width="120" height="60" as="geometry" />
        </mxCell>
        <mxCell id="PvbY62O2NmOLSWFA-3aL-49" value="" style="endArrow=classic;html=1;rounded=0;" parent="1" source="PvbY62O2NmOLSWFA-3aL-40" target="PvbY62O2NmOLSWFA-3aL-46" edge="1">
          <mxGeometry width="50" height="50" relative="1" as="geometry">
            <mxPoint x="400" y="390" as="sourcePoint" />
            <mxPoint x="450" y="340" as="targetPoint" />
          </mxGeometry>
        </mxCell>
      </root>
    </mxGraphModel>
  </diagram>
</mxfile>
